<svg width="83" height="83" viewBox="0 0 83 83" fill="none" xmlns="http://www.w3.org/2000/svg">
	<mask id="path-1-inside-1_63_201" fill="white">
		<path d="M83 41.5C83 64.4198 64.4198 83 41.5 83C18.5802 83 0 64.4198 0 41.5C0 18.5802 18.5802 0 41.5 0C64.4198 0 83 18.5802 83 41.5ZM10.375 41.5C10.375 58.6899 24.3101 72.625 41.5 72.625C58.6899 72.625 72.625 58.6899 72.625 41.5C72.625 24.3101 58.6899 10.375 41.5 10.375C24.3101 10.375 10.375 24.3101 10.375 41.5Z" />
	</mask>
	<path d="M83 41.5C83 64.4198 64.4198 83 41.5 83C18.5802 83 0 64.4198 0 41.5C0 18.5802 18.5802 0 41.5 0C64.4198 0 83 18.5802 83 41.5ZM10.375 41.5C10.375 58.6899 24.3101 72.625 41.5 72.625C58.6899 72.625 72.625 58.6899 72.625 41.5C72.625 24.3101 58.6899 10.375 41.5 10.375C24.3101 10.375 10.375 24.3101 10.375 41.5Z" fill="#D9D9D9" stroke="#CCCCCC" stroke-width="2" mask="url(#path-1-inside-1_63_201)" />
	<path d="M41.5 0C48.8593 8.77587e-08 56.0862 1.95697 62.44 5.67031C68.7938 9.38365 74.0458 14.7198 77.6578 21.1317C81.2697 27.5437 83.1117 34.8008 82.9948 42.1591C82.8779 49.5175 80.8064 56.7125 76.9926 63.0064C73.1788 69.3004 67.7599 74.467 61.2914 77.9767C54.8229 81.4864 47.5375 83.2128 40.1819 82.9791C32.8263 82.7453 25.6652 80.5598 19.4325 76.6465C13.1999 72.7332 8.12002 67.233 4.71354 60.7095L13.9102 55.9072C16.465 60.7997 20.2749 64.9249 24.9494 67.8599C29.6239 70.7948 34.9947 72.434 40.5114 72.6093C46.0281 72.7846 51.4922 71.4898 56.3436 68.8575C61.1949 66.2253 65.2591 62.3503 68.1194 57.6298C70.9798 52.9093 72.5334 47.5131 72.6211 41.9944C72.7087 36.4756 71.3273 31.0328 68.6183 26.2238C65.9094 21.4148 61.9703 17.4127 57.205 14.6277C52.4397 11.8427 47.0195 10.375 41.5 10.375V0Z" fill="#0087C9" />
</svg>
